<svg width="299" height="366" viewBox="0 0 299 366" fill="none" xmlns="http://www.w3.org/2000/svg">
<path d="M2.98804 330.116H231.074" stroke="#1ED760" stroke-width="1.12051" stroke-dasharray="4.24 4.24"/>
<path d="M231.922 330.116L231.922 8.7599" stroke="white" stroke-width="1.12051" stroke-dasharray="4.24 4.24"/>
<path d="M2.98804 365.324C4.63828 365.324 5.97607 363.986 5.97607 362.336C5.97607 360.686 4.63828 359.348 2.98804 359.348C1.33779 359.348 2.6226e-06 360.686 2.6226e-06 362.336C2.6226e-06 363.986 1.33779 365.324 2.98804 365.324ZM2.98804 362.336H3.54829V360.075H2.98804H2.42778V362.336H2.98804ZM2.98804 355.553H3.54829L3.54829 351.031H2.98804H2.42778L2.42778 355.553H2.98804ZM2.98804 346.508H3.54829V341.986H2.98804H2.42778V346.508H2.98804ZM2.98804 337.464H3.54829L3.54829 335.203H2.98804H2.42778L2.42778 337.464H2.98804Z" fill="#1ED760"/>
<path d="M298.059 3.67139L291.7 -0.000147581V7.34292L298.059 3.67139ZM231.922 3.67139V4.30732H233.989V3.67139V3.03546H231.922V3.67139ZM238.123 3.67139V4.30732H242.256V3.67139V3.03546H238.123V3.67139ZM246.39 3.67139V4.30732H250.523V3.67139V3.03546H246.39V3.67139ZM254.657 3.67139V4.30732H258.79V3.67139V3.03546H254.657V3.67139ZM262.924 3.67139V4.30732H267.057V3.67139V3.03546H262.924V3.67139ZM271.191 3.67139V4.30732H275.324V3.67139V3.03546H271.191V3.67139ZM279.458 3.67139V4.30732H283.592V3.67139V3.03546H279.458V3.67139ZM287.725 3.67139V4.30732H291.859V3.67139V3.03546H287.725V3.67139Z" fill="white"/>
</svg>
